<svg width="36" height="36" viewBox="0 0 36 36" fill="none" xmlns="http://www.w3.org/2000/svg">
<path d="M11.0688 0.00462818C11.376 -0.00906849 11.8894 0.0119704 12.215 0.0122491L22.5651 0.00117776C23.5006 -0.00384565 24.548 0.036493 25.4622 0.00477776C25.4817 0.424091 25.4697 0.918812 25.4685 1.34388C25.8263 1.35043 26.1939 1.33625 26.5536 1.33712C27.3634 1.34458 28.1733 1.346 28.983 1.3414C28.9752 1.73606 28.993 2.16981 28.9912 2.5732C29.3858 2.56794 29.7712 2.5845 30.167 2.56323C30.1805 2.90215 30.1674 3.46421 30.162 3.81345C30.5611 3.80167 30.9972 3.83532 31.3937 3.79969C31.4121 4.20866 31.3919 4.72927 31.3967 5.14866C31.3999 5.42177 31.4143 6.02566 31.3867 6.27521C31.8957 6.26716 32.4853 6.26533 32.9911 6.28001C33.0131 7.4591 32.9874 8.71157 32.9872 9.89928L32.995 18.2765C32.5229 18.252 31.8992 18.2699 31.4201 18.2701C31.3919 17.4271 31.4019 16.3872 31.4206 15.5421C30.8753 15.5595 30.1268 15.5569 29.5813 15.5413C29.5513 15.2117 29.5757 14.4534 29.5772 14.1043L29.5767 11.2558C29.1574 11.2384 28.5205 11.2416 28.1025 11.2543C28.1314 12.1209 28.1035 13.1321 28.104 14.0134L28.1064 15.4019C28.1079 15.6558 28.119 15.9531 28.107 16.2033C28.321 16.1987 28.5246 16.2024 28.7386 16.2069L28.7518 17.0096C29.1946 16.9959 29.6378 16.993 30.081 17.0009C30.1027 17.2288 30.0918 17.5011 30.0903 17.7338C30.0869 18.1248 30.0862 18.5158 30.0884 18.9068L30.0964 20.4458C30.0973 20.6638 30.1103 21.077 30.089 21.2802C30.4079 21.2603 30.8034 21.2686 31.1293 21.2668C31.751 21.2599 32.3728 21.2629 32.9942 21.2754C32.9794 22.5801 33.0168 23.9254 32.9876 25.2236C32.5242 25.2548 31.8725 25.2305 31.388 25.2342C31.4043 25.4446 31.4264 26.3313 31.3591 26.4798C31.2781 26.5255 30.4201 26.5049 30.2379 26.5056C30.2494 26.6498 30.2411 26.8983 30.2402 27.0487C30.2372 27.3661 30.237 27.6836 30.2396 28.001C29.1116 28.0254 27.9671 27.9943 26.8376 28.006C26.623 28.0084 26.405 28.0034 26.1904 27.9967L26.196 27.252C26.0038 27.2695 25.672 27.2638 25.4728 27.2664C25.4839 27.4239 25.4734 27.6895 25.4726 27.8564L25.47 28.9447L25.468 32.4056C24.6335 32.4115 23.7089 32.4296 22.8764 32.4076L22.8772 30.8016C22.4845 30.8079 22.0917 30.8101 21.6989 30.8084L21.4058 30.8072C21.4149 30.9709 21.4017 31.2065 21.3993 31.3791C21.3947 31.7201 21.3947 32.0611 21.3995 32.4021C20.5118 32.4139 19.624 32.4157 18.7363 32.408C18.7325 32.3192 18.732 32.2184 18.735 32.129C18.7495 31.6922 18.712 31.234 18.7402 30.8C18.276 30.8169 17.7516 30.8081 17.284 30.8097C17.3074 31.3154 17.2536 31.9101 17.2936 32.4129C17.0619 32.3965 16.7989 32.4131 16.5635 32.4089C15.9353 32.3976 15.2643 32.4333 14.6393 32.4037C14.6472 31.9005 14.6179 31.2814 14.646 30.7953C14.1886 30.8201 13.6088 30.8053 13.1462 30.8048C13.1517 30.9188 13.1476 31.0333 13.1461 31.1474C13.1406 31.5635 13.1515 31.9804 13.1379 32.3963C12.8384 32.4166 12.4511 32.41 12.1463 32.4105L10.5592 32.4107C10.5477 31.5009 10.5566 30.5736 10.5584 29.6633C10.5599 28.8739 10.5476 28.0447 10.5679 27.2575C10.329 27.2644 10.0716 27.2611 9.83128 27.2622C9.84092 27.4896 9.83225 27.7748 9.83165 28.0067C8.52827 27.956 7.0774 28.0584 5.77874 27.9938C5.76237 27.509 5.76772 26.9926 5.7735 26.5073C5.38737 26.5078 5.00122 26.5051 4.61512 26.4986C4.59769 26.1932 4.5958 25.5201 4.62478 25.2294C4.16116 25.2312 3.43826 25.2546 3.00155 25.2212L3.0048 22.5735C3.00677 22.1435 2.99926 21.7108 3.01512 21.2812C3.33248 21.2536 3.81488 21.2679 4.14783 21.268C4.7342 21.2664 5.32059 21.2684 5.90692 21.2741C5.90085 21.1228 5.89742 20.9583 5.89907 20.8061C5.91278 19.548 5.86284 18.2631 5.92251 17.0073C6.27736 16.9953 6.92469 16.9757 7.26198 17.0034L7.26041 16.9849C7.23834 16.705 7.24399 16.484 7.24785 16.204L7.9034 16.2029C7.88437 16.0294 7.89082 15.7303 7.89028 15.5488L7.88804 14.4667C7.88658 13.4141 7.86881 12.2922 7.89562 11.2464C7.40817 11.2522 6.90966 11.2419 6.42522 11.2564L6.42461 15.5309C6.23477 15.5527 5.93201 15.5452 5.73574 15.5452C5.35253 15.5424 4.96931 15.545 4.58618 15.5531L4.57475 18.2673C4.04986 18.2734 3.52489 18.273 3 18.2662L3.00479 10.0295C3.00159 9.21598 3.00284 8.40239 3.00854 7.58885C3.00943 7.14772 2.99763 6.73154 3.01236 6.28981C3.38046 6.25038 4.19545 6.2718 4.60502 6.27157C4.61266 5.45282 4.5932 4.63942 4.6181 3.82131C5.01057 3.80484 5.45001 3.81147 5.84632 3.81011C5.8359 3.3988 5.83659 2.98729 5.84834 2.57604C6.20045 2.56186 6.65514 2.57637 7.01505 2.57763C7.00062 2.13318 7.00112 1.79515 7.02043 1.35388C7.80957 1.29263 8.70896 1.37982 9.5075 1.34436C9.82769 1.33012 10.2311 1.32573 10.5492 1.33734C10.5253 1.03784 10.5433 0.31523 10.5572 0.0107962C10.7278 0.0145052 10.8984 0.0124467 11.0688 0.00462818ZM9.19752 17.0303L9.20135 18.2721C8.80181 18.2675 8.29939 18.254 7.90551 18.2727C7.92124 18.4687 7.90879 18.7183 7.90635 18.9203C7.90438 19.2195 7.90396 19.5186 7.90509 19.8179C7.90527 20.7195 7.92374 21.6812 7.90733 22.5753C8.33541 22.569 8.76933 22.5761 9.1942 22.5676C9.19919 22.8369 9.21899 23.5324 9.1909 23.7788L9.76829 23.774L13.3466 23.7753C13.3415 23.373 13.3593 22.9121 13.3425 22.5214C13.6526 22.5042 13.9982 22.5142 14.3131 22.5148C14.7379 22.5144 15.1626 22.5113 15.5874 22.5053C15.5751 21.9482 15.5883 21.3659 15.5882 20.8065C15.5852 19.9597 15.5887 19.1127 15.5986 18.2658C15.0828 18.268 14.563 18.2734 14.0476 18.2693C14.0452 18.0051 14.0458 17.741 14.0493 17.4768C14.0504 17.3798 14.0595 17.1194 14.0465 17.0341C13.9663 17.0167 13.9469 17.0215 13.863 17.0272L9.19752 17.0303ZM26.8226 17.0188C25.7733 17.0299 24.7241 17.034 23.6746 17.0312C23.2323 17.0311 22.7065 17.0119 22.2754 17.0268L21.9524 17.0321C21.9685 17.4112 21.9481 17.8743 21.9513 18.2664C21.4479 18.2719 20.9133 18.2542 20.4185 18.2686C20.4328 18.6578 20.4224 19.073 20.4213 19.4642L20.4228 21.0308C20.4212 21.4565 20.4145 21.9183 20.4415 22.3414C20.9837 22.337 21.0554 22.3209 21.539 22.5C21.6511 22.5415 22.479 22.5183 22.6574 22.5194C22.6589 22.8402 22.6826 23.4881 22.6578 23.7827C23.8349 23.7749 25.012 23.7737 26.1891 23.779C26.3992 23.7731 26.6095 23.7716 26.8196 23.7748C26.8067 23.3369 26.8098 23.0265 26.83 22.5869C27.1441 22.555 27.7642 22.5639 28.0996 22.5724L28.1024 18.2684C27.6745 18.2607 27.2313 18.2817 26.8096 18.2664C26.8104 17.8755 26.8004 17.4021 26.8226 17.0188ZM17.283 28.1079C17.2592 27.8419 17.2501 27.0499 17.2717 26.7609L18.2364 26.7561C18.3457 26.7556 18.6177 26.7467 18.7122 26.762C18.7557 26.8316 18.7422 26.8793 18.7362 26.9677C18.7419 27.2563 18.7523 27.8345 18.7304 28.1114C19.1867 28.1003 20.0837 28.0754 20.5224 28.1105L20.518 26.2145C20.5182 25.918 20.5079 25.5196 20.5244 25.2305C20.0241 25.2325 19.4561 25.2469 18.9608 25.2299C18.9419 24.9502 18.9519 24.5692 18.9522 24.283L18.9594 22.5899L17.7999 22.5866C17.6008 22.5847 17.3698 22.5727 17.1758 22.582C17.0856 22.5908 17.0999 22.5746 17.0543 22.6252C17.0031 22.8188 17.0641 23.0948 17.0434 23.2658C17.0138 23.5109 17.0885 25.0876 17.0095 25.1996C16.8604 25.2532 15.7265 25.2369 15.498 25.2319C15.5098 26.1096 15.4981 26.9913 15.4983 27.8694C15.4983 27.9499 15.4955 28.0279 15.4852 28.1079C15.8657 28.1016 16.2463 28.0988 16.6269 28.0996C16.815 28.0992 17.1037 28.0911 17.283 28.1079Z" fill="white"/>
<path d="M18.7794 33.6569C19.6467 33.6458 20.5142 33.6504 21.3814 33.6707C21.4521 34.3679 21.3828 35.2267 21.393 35.9358C21.3936 35.9733 21.3823 35.9696 21.3539 35.9897L19.7496 35.9908C19.4381 35.9915 19.0491 36.0037 18.7452 35.9812C18.731 35.7486 18.7104 33.7409 18.7794 33.6569Z" fill="white"/>
<path d="M14.6526 33.6514L17.2695 33.6571C17.3144 34.1936 17.2736 35.3487 17.2868 35.941C17.2774 35.9563 17.2679 35.9716 17.2584 35.9869C16.4455 35.9962 15.4576 36.0113 14.6539 35.9864C14.6222 35.756 14.6368 35.196 14.6403 34.9437C14.6458 34.5523 14.6206 34.0322 14.6526 33.6514Z" fill="white"/>
<path d="M22.8799 33.6427C23.1469 33.6637 23.5394 33.6523 23.8177 33.6523L25.4608 33.6514C25.4784 33.9113 25.4697 34.2512 25.4695 34.517L25.4659 35.9866C24.6383 36.0015 23.7072 36.0039 22.8794 35.9886C22.8501 35.2619 22.8764 34.3828 22.8799 33.6427Z" fill="white"/>
<path d="M10.5646 33.6344C10.7469 33.6624 11.2436 33.6515 11.4454 33.6515C12.0062 33.6471 12.5671 33.6497 13.1278 33.6597C13.1489 33.9622 13.1352 34.2702 13.1367 34.5743L13.1488 35.9834C12.8435 36.0017 12.4535 35.9921 12.1447 35.9923C11.6162 35.9949 11.0876 35.9936 10.559 35.989C10.5552 35.4935 10.5543 34.9979 10.5564 34.5026C10.5569 34.2288 10.5496 33.9046 10.5646 33.6344Z" fill="white"/>
</svg>
