<svg xmlns="http://www.w3.org/2000/svg" viewBox="0 0 507 378" role="img" aria-label="LootPile.eu">
  <path fill="#231F20" fill-rule="evenodd" d="M170,335 L164,338 L163,340 L163,346 L166,351 L173,352 L175,351 L177,348 L177,339 L175,336 Z M295,309 L283,309 L282,331 L281,334 L275,339 L269,334 L267,330 L264,312 L263,311 L252,311 L252,329 L253,330 L253,334 L257,344 L266,354 L271,356 L279,356 L284,353 L292,344 L297,332 L297,314 Z M226,307 L223,306 L214,306 L213,307 L206,308 L197,313 L190,321 L188,327 L188,339 L192,348 L199,356 L206,359 L213,359 L231,353 L235,350 L236,348 L236,341 L235,339 L232,338 L227,339 L214,346 L211,346 L207,344 L204,340 L204,338 L206,336 L221,331 L228,326 L230,322 L230,312 Z M205,325 L206,324 L207,325 L206,326 Z M216,321 L209,325 L206,324 L209,320 L214,319 Z M195,190 L194,191 L191,191 L187,195 L187,211 L188,212 L188,254 L190,256 L195,258 L201,258 L204,256 L203,212 L202,211 L201,193 L199,191 Z M150,157 L144,155 L134,155 L133,156 L129,156 L128,157 L117,159 L98,166 L100,253 L102,254 L108,254 L111,253 L115,249 L114,233 L113,232 L113,218 L112,217 L113,214 L135,212 L146,208 L153,203 L160,194 L163,186 L163,173 L159,164 Z M148,176 L149,178 L149,183 L146,188 L139,194 L129,197 L125,197 L124,198 L114,198 L113,197 L113,177 L114,176 L124,173 L130,173 L131,172 L144,173 Z M213,156 L209,152 L203,149 L193,149 L180,154 L174,161 L172,165 L171,172 L170,173 L171,180 L176,184 L187,184 L198,179 L203,175 L206,174 L214,166 L214,158 Z M201,161 L201,164 L195,169 L188,172 L185,172 L184,171 L184,168 L188,163 L195,160 L200,160 Z M236,149 L234,151 L234,155 L233,156 L233,175 L232,176 L232,195 L231,196 L231,215 L230,216 L230,241 L232,246 L274,246 L277,242 L277,233 L274,229 L253,230 L252,229 L245,229 L244,228 L244,198 L245,197 L245,185 L246,184 L247,157 L246,156 L246,150 L240,148 L239,149 Z M375,141 L343,142 L342,143 L336,143 L335,144 L309,145 L308,146 L297,146 L296,147 L295,156 L294,157 L294,172 L293,173 L293,176 L294,177 L295,195 L296,196 L297,208 L298,209 L298,214 L299,215 L299,220 L300,221 L301,233 L302,234 L302,239 L303,241 L311,242 L312,243 L330,244 L331,243 L344,243 L345,242 L363,241 L364,240 L370,240 L376,238 L376,235 L377,234 L377,225 L376,222 L369,222 L368,223 L363,223 L362,224 L358,224 L352,226 L346,226 L345,227 L314,226 L313,225 L311,204 L310,203 L310,198 L311,197 L324,197 L325,198 L374,198 L376,194 L376,187 L375,184 L371,181 L311,181 L310,180 L310,172 L311,171 L311,164 L313,162 L318,162 L319,161 L330,160 L331,159 L338,159 L339,158 L376,159 L377,158 L377,146 Z M18,96 L18,214 L19,215 L19,259 L20,260 L20,290 L21,291 L21,322 L22,323 L22,330 L26,333 L108,337 L107,321 L105,314 L104,315 L41,315 L37,313 L37,308 L36,307 L35,247 L34,246 L34,215 L33,214 L33,116 L34,115 L34,109 L38,107 L45,106 L49,104 L52,104 L56,102 L69,99 L70,98 L70,94 L69,93 L69,86 L67,86 L66,87 L62,87 L61,88 L57,88 L56,89 L52,89 L51,90 L47,90 L46,91 L42,91 L41,92 Z M485,80 L476,79 L471,77 L462,76 L457,74 L453,74 L448,72 L444,72 L439,70 L427,68 L428,85 L447,88 L452,90 L457,90 L466,93 L466,106 L465,107 L464,118 L463,119 L460,137 L458,141 L458,145 L455,154 L455,158 L450,175 L450,179 L449,180 L449,184 L447,190 L447,195 L446,196 L446,201 L445,202 L445,209 L444,210 L443,278 L442,279 L442,288 L441,289 L440,300 L437,307 L430,308 L429,309 L407,310 L406,311 L372,311 L370,318 L370,331 L393,330 L394,329 L403,329 L404,328 L413,328 L414,327 L431,326 L432,325 L439,325 L440,324 L448,324 L453,322 L456,317 L457,303 L458,302 L458,289 L459,288 L460,231 L461,230 L462,203 L463,202 L463,196 L464,195 L466,180 L468,175 L468,171 L470,166 L470,162 L472,157 L472,153 L474,148 L478,125 L481,115 L481,110 L482,109 L484,93 L485,92 L485,82 L486,81 Z M166,57 L163,61 L159,71 L158,86 L159,87 L159,92 L164,104 L174,115 L182,119 L194,120 L195,119 L199,119 L207,116 L224,112 L233,106 L237,99 L239,92 L239,78 L238,77 L237,70 L233,62 L226,54 L216,48 L206,45 L189,45 L188,46 L181,47 L175,50 Z M179,68 L183,65 L193,61 L206,61 L212,63 L221,71 L225,81 L225,91 L223,95 L217,100 L206,103 L197,107 L189,106 L182,103 L177,98 L174,92 L174,78 Z M314,51 L300,44 L292,43 L291,42 L286,42 L285,43 L280,43 L276,45 L273,45 L261,52 L254,60 L249,73 L249,86 L252,96 L255,102 L261,108 L265,110 L272,110 L273,111 L298,109 L299,108 L308,107 L315,104 L322,97 L324,93 L326,86 L326,76 L327,75 L326,74 L326,68 L322,59 Z M266,69 L271,64 L280,59 L283,59 L284,58 L297,58 L298,59 L301,59 L305,61 L312,68 L313,71 L313,81 L310,88 L306,93 L298,94 L297,95 L291,95 L285,97 L277,97 L268,93 L263,86 L262,78 Z M93,29 L91,31 L91,51 L90,52 L89,128 L142,128 L144,124 L144,111 L143,110 L107,110 L106,109 L106,30 L102,28 Z M400,21 L380,21 L379,22 L321,22 L318,23 L315,26 L314,29 L314,36 L315,37 L352,38 L353,39 L352,91 L353,92 L354,110 L355,112 L357,113 L366,113 L371,109 L370,87 L369,86 L369,66 L368,65 L369,39 L370,38 L403,38 L405,33 L405,26 L404,24 Z"/>
</svg>
